# xmcd CD database file
#
# Track frame offsets:
#	150
#	11998
#	26301
#	48433
#	61214
#	83382
#	96617
#	113928
#	127020
#	143095
#	154033
#	171231
#	190835
#	207800
#	218316
#	233724
#	256153
#	284956
#	301305
#	316810
#
# Disc length: 4446 seconds
#
# Revision: 0
# Processed by: cddbd v1.5.1PL0 Copyright (c) Steve Scherf et al.
# Submitted via: Feurio! 1.68 - http://www.feurio.com
#
DISCID=13115c14
DTITLE=GRAM PARSONS - GP/GRIEVOUS ANGEL
DYEAR=1973
DGENRE=COUNTRY
TTITLE0=STILL FEELING BLUE
TTITLE1=WE'LL SWEEP OUT THE ASHES IN THE MORNING
TTITLE2=A SONG FOR YOU
TTITLE3=STREETS OF BALTIMORE
TTITLE4=SHE
TTITLE5=THAT'S ALL IT TOOK
TTITLE6=THE NEW SOFT SHOE
TTITLE7=KISS THE CHILDREN
TTITLE8=CRY ONE MORE TIME
TTITLE9=HOW MUCH I'VE LIED
TTITLE10=BIG MOUTH BLUES
TTITLE11=RETURN OF THE GRIEVOUS ANGEL
TTITLE12=HEARTS ON FIRE
TTITLE13=I CAN'T DANCE
TTITLE14=BRASS BUTTONS
TTITLE15=$ 1000 WEDDING
TTITLE16=CASH ON THE BARRELHEAD/HICKORY WIND
TTITLE17=LOVE HURTS
TTITLE18=OOH LAS VEGAS
TTITLE19=IN MY HOUR OF DARKNESS
EXTD=
EXTT0=
EXTT1=
EXTT2=
EXTT3=
EXTT4=
EXTT5=
EXTT6=
EXTT7=
EXTT8=
EXTT9=
EXTT10=
EXTT11=
EXTT12=
EXTT13=
EXTT14=
EXTT15=
EXTT16=
EXTT17=
EXTT18=
EXTT19=
PLAYORDER=
